<svg width="36" height="36" viewBox="0 0 36 36" fill="none" xmlns="http://www.w3.org/2000/svg">
<path fill-rule="evenodd" clip-rule="evenodd" d="M6.88174 0.0139019H34.3296V16.6961H18.6885C17.9632 16.6953 17.2672 16.9167 16.7532 17.3116C16.2393 17.7065 15.9495 18.2426 15.9475 18.8022V26.3773H6.49831C3.93955 26.556 4.84688 29.1894 6.49831 29.0518H15.9475V30.6658H6.6084C2.76646 30.7068 1.49468 30.5486 1.49468 28.378V25.9819C1.07751 25.9241 0.699952 25.7549 0.428029 25.5041C0.156107 25.2532 0.00712118 24.9366 0.00712118 24.6095C0.00712118 24.2825 0.156107 23.9659 0.428029 23.715C0.699952 23.4641 1.07751 23.295 1.49468 23.2372V21.0373C1.07751 20.9795 0.699952 20.8103 0.428029 20.5595C0.156107 20.3086 0.00712118 19.992 0.00712118 19.6649C0.00712118 19.3379 0.156107 19.0212 0.428029 18.7704C0.699952 18.5195 1.07751 18.3504 1.49468 18.2926V16.0927C1.07751 16.0348 0.699952 15.8657 0.428029 15.6148C0.156107 15.364 0.00712118 15.0473 0.00712118 14.7203C0.00712118 14.3933 0.156107 14.0766 0.428029 13.8258C0.699952 13.5749 1.07751 13.4058 1.49468 13.3479V11.1481C1.06622 11.1084 0.673451 10.9442 0.396287 10.689C0.119122 10.4338 -0.0216182 10.1067 0.00269833 9.77423C-0.0197924 9.44212 0.121607 9.11576 0.398434 8.86086C0.67526 8.60595 1.06696 8.44143 1.49468 8.40041V6.20345C1.06659 6.16309 0.674358 5.99875 0.397364 5.74369C0.12037 5.48863 -0.0207019 5.1619 0.00269833 4.82962C-0.0207019 4.49735 0.12037 4.17062 0.397364 3.91556C0.674358 3.6605 1.06659 3.49616 1.49468 3.4558C1.49847 0.58511 1.71107 -0.112057 6.88174 0.0139019ZM20.2032 18.9253H34.7358C35.0705 18.9268 35.3909 19.0301 35.6275 19.2127C35.8642 19.3953 35.998 19.6425 36 19.9007V35.0187C35.9987 35.1471 35.9646 35.274 35.8994 35.3922C35.8342 35.5103 35.7394 35.6173 35.6204 35.7071C35.5046 35.7994 35.366 35.873 35.2128 35.9233C35.0595 35.9736 34.8947 35.9997 34.7282 36H20.2032C19.8686 35.9985 19.5482 35.8952 19.3115 35.7126C19.0749 35.53 18.941 35.2828 18.9391 35.0246V19.9007C18.941 19.6425 19.0749 19.3953 19.3115 19.2127C19.5482 19.0301 19.8686 18.9268 20.2032 18.9253V18.9253ZM33.1527 21.3331H21.7901V23.9871H33.1527V21.3331ZM31.0078 29.2685H33.0312C33.1148 29.2685 33.1949 29.2941 33.254 29.3397C33.3131 29.3853 33.3463 29.4472 33.3463 29.5117V30.8328C33.3463 30.8972 33.3131 30.9591 33.254 31.0047C33.1949 31.0503 33.1148 31.0759 33.0312 31.0759H31.0078C30.9238 31.0759 30.8433 31.0504 30.7836 31.0049C30.7239 30.9594 30.6899 30.8975 30.6889 30.8328V29.5117C30.6899 29.4469 30.7239 29.3851 30.7836 29.3396C30.8433 29.294 30.9238 29.2685 31.0078 29.2685ZM31.0078 26.1342H33.0312C33.1151 26.135 33.1953 26.1612 33.2543 26.2073C33.3133 26.2534 33.3463 26.3155 33.3463 26.3803V27.6984C33.3463 27.7629 33.3131 27.8248 33.254 27.8704C33.1949 27.916 33.1148 27.9416 33.0312 27.9416H31.0078C30.9238 27.9416 30.8433 27.9161 30.7836 27.8705C30.7239 27.825 30.6899 27.7632 30.6889 27.6984V26.3803C30.6898 26.3152 30.7238 26.2531 30.7834 26.2071C30.8429 26.1611 30.9235 26.135 31.0078 26.1342ZM31.0078 32.4029H33.0312C33.1148 32.4029 33.1949 32.4285 33.254 32.4741C33.3131 32.5197 33.3463 32.5815 33.3463 32.646V33.9788C33.3463 34.0436 33.3133 34.1057 33.2543 34.1518C33.1953 34.1978 33.1151 34.2241 33.0312 34.2249H31.0078C30.9232 34.2249 30.8421 34.1989 30.7823 34.1528C30.7225 34.1066 30.6889 34.0441 30.6889 33.9788V32.6606C30.6908 32.5961 30.7252 32.5347 30.7847 32.4894C30.8441 32.444 30.9241 32.4182 31.0078 32.4175V32.4029ZM26.4521 29.2685H28.4756C28.5595 29.2685 28.64 29.294 28.6997 29.3396C28.7594 29.3851 28.7935 29.4469 28.7945 29.5117V30.8328C28.7935 30.8975 28.7594 30.9594 28.6997 31.0049C28.64 31.0504 28.5595 31.0759 28.4756 31.0759H26.4369C26.353 31.0759 26.2724 31.0504 26.2127 31.0049C26.1531 30.9594 26.119 30.8975 26.118 30.8328V29.5117C26.119 29.4469 26.1531 29.3851 26.2127 29.3396C26.2724 29.294 26.353 29.2685 26.4369 29.2685H26.4521ZM26.4521 26.1342H28.4756C28.5598 26.135 28.6404 26.1611 28.7 26.2071C28.7596 26.2531 28.7935 26.3152 28.7945 26.3803V27.6984C28.7935 27.7632 28.7594 27.825 28.6997 27.8705C28.64 27.9161 28.5595 27.9416 28.4756 27.9416H26.4369C26.353 27.9416 26.2724 27.9161 26.2127 27.8705C26.1531 27.825 26.119 27.7632 26.118 27.6984V26.3803C26.119 26.3152 26.1529 26.2531 26.2125 26.2071C26.2721 26.1611 26.3526 26.135 26.4369 26.1342H26.4521ZM26.4521 32.4029H28.4756C28.5595 32.4028 28.64 32.4284 28.6997 32.4739C28.7594 32.5194 28.7935 32.5812 28.7945 32.646V33.9788C28.7935 34.0438 28.7596 34.106 28.7 34.152C28.6404 34.1979 28.5598 34.2241 28.4756 34.2249H26.4369C26.3523 34.2249 26.2712 34.1989 26.2114 34.1528C26.1516 34.1066 26.118 34.0441 26.118 33.9788V32.6606C26.12 32.5961 26.1543 32.5347 26.2138 32.4894C26.2733 32.444 26.3533 32.4182 26.4369 32.4175L26.4521 32.4029ZM21.9496 26.1342H23.9731C24.0576 26.1342 24.1387 26.1601 24.1986 26.2063C24.2584 26.2524 24.292 26.315 24.292 26.3803V27.6984C24.291 27.7632 24.2569 27.825 24.1972 27.8705C24.1375 27.9161 24.057 27.9416 23.9731 27.9416H21.9496C21.866 27.9416 21.7859 27.916 21.7268 27.8704C21.6677 27.8248 21.6345 27.7629 21.6345 27.6984V26.3803C21.6345 26.3155 21.6676 26.2534 21.7265 26.2073C21.7855 26.1612 21.8657 26.135 21.9496 26.1342V26.1342ZM21.9496 32.4029H23.9731C24.057 32.4028 24.1375 32.4284 24.1972 32.4739C24.2569 32.5194 24.291 32.5812 24.292 32.646V33.9788C24.292 34.0441 24.2584 34.1066 24.1986 34.1528C24.1387 34.1989 24.0576 34.2249 23.9731 34.2249H21.9496C21.867 34.2226 21.7888 34.1957 21.7314 34.1498C21.6741 34.1039 21.642 34.0426 21.6421 33.9788V32.6606C21.6431 32.5964 21.6766 32.535 21.7355 32.4896C21.7943 32.4441 21.8739 32.4183 21.9572 32.4175L21.9496 32.4029ZM21.9496 29.2685H23.9731C24.057 29.2685 24.1375 29.294 24.1972 29.3396C24.2569 29.3851 24.291 29.4469 24.292 29.5117V30.8328C24.291 30.8975 24.2569 30.9594 24.1972 31.0049C24.1375 31.0504 24.057 31.0759 23.9731 31.0759H21.9496C21.866 31.0759 21.7859 31.0503 21.7268 31.0047C21.6677 30.9591 21.6345 30.8972 21.6345 30.8328V29.5117C21.6345 29.4472 21.6677 29.3853 21.7268 29.3397C21.7859 29.2941 21.866 29.2685 21.9496 29.2685V29.2685ZM34.7358 19.5756H20.2032C20.0921 19.5763 19.9859 19.6109 19.9077 19.6718C19.8295 19.7327 19.7856 19.815 19.7856 19.9007V35.0187C19.7856 35.1044 19.8295 35.1867 19.9077 35.2476C19.9859 35.3085 20.0921 35.3431 20.2032 35.3438H34.7358C34.847 35.3423 34.953 35.3076 35.0316 35.2469C35.1102 35.1863 35.1553 35.1045 35.1572 35.0187V19.9007C35.1553 19.815 35.1102 19.7331 35.0316 19.6725C34.953 19.6118 34.847 19.5771 34.7358 19.5756ZM18.324 6.22982C18.1314 6.20934 17.9562 6.1326 17.8347 6.01542C17.7132 5.89824 17.6547 5.74955 17.6711 5.60002C17.6577 5.45194 17.7177 5.30546 17.8389 5.19019C17.9601 5.07491 18.1335 4.99944 18.324 4.97902H29.8157C30.0084 4.99949 30.1835 5.07623 30.305 5.19341C30.4265 5.31059 30.4851 5.45928 30.4687 5.60881C30.4851 5.75834 30.4265 5.90703 30.305 6.02421C30.1835 6.14139 30.0084 6.21813 29.8157 6.2386L18.324 6.22982ZM18.324 12.6127C18.1376 12.5815 17.9707 12.502 17.8509 12.3874C17.7312 12.2728 17.6659 12.1301 17.6659 11.9829C17.6659 11.8357 17.7312 11.693 17.8509 11.5784C17.9707 11.4638 18.1376 11.3843 18.324 11.3531H25.8788C26.0653 11.3843 26.2322 11.4638 26.352 11.5784C26.4717 11.693 26.537 11.8357 26.537 11.9829C26.537 12.1301 26.4717 12.2728 26.352 12.3874C26.2322 12.502 26.0653 12.5815 25.8788 12.6127H18.324ZM18.324 9.41979C18.1307 9.39931 17.9549 9.32215 17.8333 9.20433C17.7117 9.08651 17.6536 8.93708 17.6711 8.78707C17.6557 8.63802 17.7147 8.49007 17.8361 8.37353C17.9575 8.25698 18.1321 8.18067 18.324 8.16021H27.4543C27.6442 8.18269 27.816 8.25987 27.9351 8.37619C28.0541 8.49252 28.1116 8.63934 28.0959 8.78707C28.1123 8.9366 28.0537 9.08529 27.9323 9.20247C27.8108 9.31965 27.6356 9.39639 27.443 9.41686L18.324 9.41979ZM10.2529 12.6859C9.93024 12.6713 9.87329 12.6508 9.56579 12.6186C9.25828 12.5863 9.0267 12.56 8.77234 12.5248C8.51798 12.4897 8.27502 12.4457 8.03964 12.3989V10.7848C8.34715 10.8053 8.68123 10.8229 9.03809 10.8346C9.39495 10.8463 9.7556 10.861 10.1239 10.8669C10.4921 10.8727 10.8338 10.8669 11.1489 10.8669C11.4037 10.8712 11.6584 10.8535 11.9082 10.8141C12.0748 10.7921 12.2301 10.7342 12.3561 10.6472C12.4076 10.6049 12.4475 10.5552 12.4736 10.5008C12.4997 10.4465 12.5114 10.3887 12.508 10.3308V10.2048C12.513 10.1381 12.4961 10.0714 12.459 10.011C12.4218 9.95062 12.3656 9.8984 12.2954 9.85918C12.1494 9.78151 11.9753 9.74152 11.7981 9.74494H11.0767C10.0239 9.74494 9.22664 9.56626 8.68503 9.20888C8.14341 8.85151 7.87133 8.25394 7.8688 7.41617V7.08223C7.83801 6.76143 7.90274 6.43944 8.05803 6.1409C8.21332 5.84236 8.45506 5.57519 8.76475 5.35982C9.16711 5.05546 9.69218 4.86633 10.2529 4.82377V4.15589H12.2878V4.80033C13.0337 4.84218 13.7724 4.94029 14.4935 5.09326V6.70729C14.0759 6.68092 13.6089 6.65749 13.085 6.63991C12.5611 6.62234 12.0904 6.61355 11.6652 6.61355C11.4374 6.61186 11.2099 6.62657 10.9856 6.65749C10.8134 6.67404 10.6525 6.73253 10.5263 6.82446C10.468 6.87361 10.4235 6.93147 10.3954 6.99446C10.3673 7.05744 10.3563 7.12421 10.363 7.19062V7.29607C10.3569 7.37085 10.3732 7.44571 10.4107 7.51482C10.4483 7.58392 10.506 7.6454 10.5794 7.69445C10.7748 7.79591 11.009 7.84339 11.2438 7.8292H12.1511C12.7017 7.81881 13.2461 7.9198 13.7304 8.12212C14.1383 8.29536 14.4701 8.55848 14.6833 8.87788C14.9016 9.21396 15.011 9.58585 15.0022 9.96171V10.3074C15.0458 10.8368 14.8903 11.3648 14.5542 11.8277C14.2553 12.1687 13.8061 12.4143 13.29 12.519C12.9735 12.6079 12.6427 12.6631 12.3068 12.683V13.43H10.2529V12.6859Z" fill="#1EB980"/>
</svg>
