<svg width="30" height="30" viewBox="0 0 30 30" fill="none" xmlns="http://www.w3.org/2000/svg">
<path d="M26.6667 0H3.33333C1.5 0 0 1.5 0 3.33333V26.6667C0 28.5 1.5 30 3.33333 30H26.6667C28.5 30 30 28.5 30 26.6667V3.33333C30 1.5 28.5 0 26.6667 0ZM10 21.6667C10 22.5871 9.25381 23.3333 8.33333 23.3333V23.3333C7.41286 23.3333 6.66667 22.5871 6.66667 21.6667V8.33333C6.66667 7.41286 7.41286 6.66667 8.33333 6.66667V6.66667C9.25381 6.66667 10 7.41286 10 8.33333V21.6667ZM16.6667 13.3333C16.6667 14.2538 15.9205 15 15 15V15C14.0795 15 13.3333 14.2538 13.3333 13.3333V8.33333C13.3333 7.41286 14.0795 6.66667 15 6.66667V6.66667C15.9205 6.66667 16.6667 7.41286 16.6667 8.33333V13.3333ZM23.3333 18.3333C23.3333 19.2538 22.5871 20 21.6667 20V20C20.7462 20 20 19.2538 20 18.3333V8.33333C20 7.41286 20.7462 6.66667 21.6667 6.66667V6.66667C22.5871 6.66667 23.3333 7.41286 23.3333 8.33333V18.3333Z" fill="#1EB980"/>
</svg>
