<svg width="30" height="30" viewBox="0 0 30 30" fill="none" xmlns="http://www.w3.org/2000/svg">
<path d="M11.7355 28.1987V22.4533C11.7355 20.6524 13.1955 19.1924 14.9964 19.1924V19.1924C16.7973 19.1924 18.2572 20.6524 18.2572 22.4533V28.1987C18.2572 29.1894 18.9909 30 19.8876 30H24.7789C25.6756 30 26.4093 29.1894 26.4093 28.1987V18.3616C26.4093 16.8309 27.6503 15.5899 29.1811 15.5899V15.5899C29.931 15.5899 30.2897 14.5632 29.7191 14.0228L16.0888 0.459321C15.4692 -0.153107 14.5236 -0.153107 13.904 0.459321L0.27367 14.0228C-0.280673 14.5632 0.0617123 15.5899 0.811706 15.5899V15.5899C2.34248 15.5899 3.58342 16.8309 3.58342 18.3616V28.1987C3.58342 29.1894 4.31711 30 5.21385 30H10.1051C11.0018 30 11.7355 29.1894 11.7355 28.1987Z" fill="#1EB980"/>
</svg>
