<svg width="30" height="30" viewBox="0 0 30 30" fill="none" xmlns="http://www.w3.org/2000/svg">
<path d="M26.6667 6.66667H10C8.16667 6.66667 6.66667 8.16667 6.66667 10V26.6667C6.66667 28.5 8.16667 30 10 30H26.6667C28.5 30 30 28.5 30 26.6667V10C30 8.16667 28.5 6.66667 26.6667 6.66667ZM26.6667 11.6667C26.6667 12.5833 25.9167 13.3333 25 13.3333H11.6667C10.75 13.3333 10 12.5833 10 11.6667C10 10.75 10.75 10 11.6667 10H25C25.9167 10 26.6667 10.75 26.6667 11.6667ZM18.3333 20C17.4129 20 16.6667 19.2538 16.6667 18.3333C16.6667 17.4129 17.4129 16.6667 18.3333 16.6667C19.2538 16.6667 20 17.4129 20 18.3333C20 19.2538 19.2538 20 18.3333 20ZM18.3333 23.3333C19.2538 23.3333 20 24.0795 20 25C20 25.9205 19.2538 26.6667 18.3333 26.6667C17.4129 26.6667 16.6667 25.9205 16.6667 25C16.6667 24.0795 17.4129 23.3333 18.3333 23.3333ZM13.3333 18.3333C13.3333 19.2538 12.5871 20 11.6667 20C10.7462 20 10 19.2538 10 18.3333C10 17.4129 10.7462 16.6667 11.6667 16.6667C12.5871 16.6667 13.3333 17.4129 13.3333 18.3333ZM23.3333 18.3333C23.3333 17.4129 24.0795 16.6667 25 16.6667C25.9205 16.6667 26.6667 17.4129 26.6667 18.3333C26.6667 19.2538 25.9205 20 25 20C24.0795 20 23.3333 19.2538 23.3333 18.3333ZM10 25C10 24.0795 10.7462 23.3333 11.6667 23.3333C12.5871 23.3333 13.3333 24.0795 13.3333 25C13.3333 25.9205 12.5871 26.6667 11.6667 26.6667C10.7462 26.6667 10 25.9205 10 25ZM25 26.6667C24.0795 26.6667 23.3333 25.9205 23.3333 25C23.3333 24.0795 24.0795 23.3333 25 23.3333C25.9205 23.3333 26.6667 24.0795 26.6667 25C26.6667 25.9205 25.9205 26.6667 25 26.6667ZM5 21.6667C5 22.5871 4.25381 23.3333 3.33333 23.3333C1.5 23.3333 0 21.8333 0 20V3.33333C0 1.5 1.5 0 3.33333 0H20C21.8333 0 23.3333 1.5 23.3333 3.33333C23.3333 4.25381 22.5871 5 21.6667 5H20.8333C20.3731 5 20 4.6269 20 4.16667C20 3.70643 19.6269 3.33333 19.1667 3.33333H11.6667C7.0643 3.33333 3.33333 7.06429 3.33333 11.6667V19.1667C3.33333 19.6269 3.70643 20 4.16667 20C4.6269 20 5 20.3731 5 20.8333V21.6667Z" fill="#1EB980"/>
</svg>
