<svg width="30" height="30" viewBox="0 0 30 30" fill="none" xmlns="http://www.w3.org/2000/svg">
<path d="M22.5431 9.49664C22.2312 6.69021 22.5887 3.84085 23.5787 1.2416C23.7232 0.916098 23.9962 0.536348 23.7232 0.183723C23.4503 -0.168902 23.073 0.075223 22.7518 0.183723C21.924 0.454971 21.1549 0.916343 20.4931 1.53879C19.8313 2.16123 19.2911 2.93126 18.9065 3.80039C18.6898 4.22535 18.5373 4.65031 17.9512 4.55989C15.9733 4.26921 13.9728 4.22675 11.9866 4.43331C10.497 4.53442 9.04254 4.98401 7.71582 5.75339C5.6701 7.02168 4.06579 9.03257 3.16408 11.4587C3.12031 11.3393 3.08801 11.2151 3.06774 11.088C2.84296 9.91256 2.26496 9.27964 1.35783 9.43335H1.34177C1.13477 9.4627 0.935274 9.53933 0.755481 9.65853C0.575688 9.77773 0.419384 9.937 0.296138 10.1266C0.172892 10.3162 0.0852959 10.5321 0.0387115 10.7612C-0.00787288 10.9902 -0.0124653 11.2276 0.025215 11.4587C-0.0232401 12.4592 0.144241 13.4581 0.513328 14.3698C0.882415 15.2815 1.44212 16.0789 2.14455 16.6938C2.4003 16.8911 2.58306 17.187 2.65833 17.5256C3.13018 19.7629 4.2209 21.7734 5.7731 23.2671C6.0537 23.5258 6.27363 23.8581 6.4136 24.2349C6.55357 24.6117 6.60929 25.0214 6.57588 25.4281C6.35913 27.8874 7.22613 29.1351 9.60235 29.4968C9.78491 29.5453 9.96988 29.5816 10.1563 29.6053C11.7618 29.976 11.5852 29.967 11.8822 28.3214C12.0829 27.2183 12.4763 26.8928 13.4878 27.0646C14.3069 27.1911 15.1342 27.2365 15.9603 27.2002C17.9432 27.2002 17.9512 27.2002 18.4891 29.2889C18.5854 29.6686 18.6577 30.0845 19.1313 29.9851C20.2303 29.8679 21.3103 29.5851 22.3424 29.1442C22.7341 28.9948 23.0765 28.7153 23.3244 28.3425C23.5723 27.9696 23.7142 27.521 23.7312 27.0556C23.5627 25.1297 24.1166 24.3431 25.1441 22.9054C25.2886 22.7156 25.5937 22.381 25.7623 22.1098C26.0658 21.5665 26.4811 21.1137 26.973 20.7894C27.4649 20.4652 28.0188 20.2792 28.588 20.2472C29.5594 20.1929 29.9929 19.8584 29.9929 18.6016V14.8041C30.029 14.4113 29.9263 14.0183 29.7069 13.7103C29.4875 13.4022 29.1691 13.204 28.8208 13.1585C28.2715 13.0352 27.7577 12.761 27.325 12.3604C26.8923 11.9598 26.554 11.4451 26.3403 10.8619C25.4871 8.97788 24.1721 7.40891 22.5512 6.3411L22.5431 9.49664ZM23.8597 16.1604C23.4798 16.1347 23.1244 15.9404 22.8716 15.62C22.6187 15.2997 22.4891 14.8794 22.511 14.4515C22.5317 14.0308 22.6997 13.6366 22.9781 13.3553C23.2565 13.0739 23.6226 12.9284 23.9962 12.9506V12.9506C24.1909 12.952 24.3833 12.9979 24.5617 13.0856C24.7402 13.1733 24.9009 13.301 25.0343 13.4608C25.1676 13.6206 25.2707 13.8093 25.3373 14.0153C25.4039 14.2214 25.4326 14.4406 25.4217 14.6595C25.4108 14.8785 25.3606 15.0926 25.2739 15.289C25.1873 15.4854 25.0661 15.66 24.9178 15.802C24.7695 15.9441 24.5971 16.0507 24.411 16.1154C24.225 16.1801 24.0292 16.2015 23.8356 16.1784L23.8597 16.1604Z" fill="#1EB980"/>
</svg>
