<svg width="36" height="36" viewBox="0 0 36 36" fill="none" xmlns="http://www.w3.org/2000/svg">
<path fill-rule="evenodd" clip-rule="evenodd" d="M16.6429 14.0001L15.8783 10.563C18.4021 11.026 22.0937 15.0081 24.4383 18.161C22.7687 19.2012 21.7502 20.6985 21.7502 22.4742C21.7497 22.7265 21.7707 22.9784 21.813 23.2273C20.6556 22.8289 19.4374 22.6278 18.2109 22.6325C16.6019 22.6126 15.011 22.9681 13.5695 23.6698C11.7416 24.6103 10.6067 26.1106 10.6067 27.939C10.6046 28.4386 10.6925 28.9346 10.8665 29.4041C10.8337 29.4979 10.8008 29.5946 10.7739 29.6972C10.6654 30.0638 10.6091 30.4435 10.6067 30.8253C10.6056 31.3094 10.6894 31.7902 10.8546 32.2464L10.7889 32.4457C10.6719 32.8259 10.6105 33.2206 10.6067 33.6178C10.6039 34.466 10.8598 35.2956 11.3414 36H11.1174C7.56916 35.8213 2.0825 35.8271 0.663795 32.2552C-1.66288 26.4769 2.57531 19.6085 6.44016 15.4037C6.93785 14.8622 7.46425 14.3467 8.01717 13.8595C9.42393 12.6464 10.9412 11.2223 12.7482 10.607L11.0009 13.8009L13.5397 10.4985H14.8777L16.6429 14.0001ZM22.5686 32.9174C22.7029 33.1296 22.7753 33.3739 22.7777 33.6236C22.7777 34.9246 20.7258 35.9678 18.196 35.9678C15.6662 35.9678 13.6113 34.9129 13.6113 33.6236C13.6145 33.374 13.6868 33.1299 13.8204 32.9174C14.4178 33.8756 16.1441 34.5701 18.196 34.5701C20.2479 34.5701 21.9892 33.8756 22.5686 32.9174ZM35.7431 32.0794C35.9103 32.3433 35.9992 32.6477 36 32.9585C36 34.5525 33.4822 35.8476 30.3819 35.8476C27.2817 35.8476 24.7818 34.5378 24.7818 32.9438C24.7819 32.633 24.8709 32.3284 25.0386 32.0648C25.7525 33.2368 27.882 34.0895 30.3969 34.0895C32.9117 34.0895 35.0442 33.2368 35.773 32.0648L35.7431 32.0794ZM35.7431 28.5866C35.9096 28.8509 35.9985 29.155 36 29.4657C36 31.0597 33.4822 32.3548 30.3819 32.3548C27.2817 32.3548 24.7818 31.0538 24.7818 29.451C24.7827 29.1403 24.8716 28.836 25.0386 28.572C25.7525 29.744 27.882 30.5967 30.3969 30.5967C32.9117 30.5967 35.0442 29.744 35.773 28.572L35.7431 28.5866ZM32.4099 21.308L32.3442 22.0259L29.5904 21.7915C29.8186 22.0779 29.9797 22.41 30.0623 22.7643L29.3993 22.7057C29.3351 22.4785 29.2342 22.2629 29.1006 22.0669C28.9639 21.8485 28.7658 21.6735 28.5301 21.5629L28.5809 20.9769L32.4129 21.3022L32.4099 21.308ZM30.3819 20.1858C32.9296 20.1858 34.9965 20.9828 34.9965 21.9615C34.9965 22.9401 32.9296 23.7284 30.3819 23.7284C27.8342 23.7284 25.7674 22.9401 25.7674 21.9702C25.7674 21.0004 27.8342 20.1946 30.3819 20.1946V20.1858ZM30.3819 19.5997C33.4822 19.5997 36 20.8949 36 22.4889C36 24.0829 33.4822 25.3781 30.3819 25.3781C27.2817 25.3781 24.7818 24.08 24.7818 22.486C24.7818 20.8919 27.2966 19.5968 30.3969 19.5968L30.3819 19.5997ZM35.7581 25.1993C35.9104 25.4504 35.9928 25.7364 35.997 26.0286C35.997 27.6226 33.4792 28.9177 30.3789 28.9177C27.2787 28.9177 24.7818 27.6197 24.7818 26.0256C24.778 25.7338 24.8543 25.4464 25.0028 25.1935C25.6957 26.3831 27.8402 27.2446 30.3789 27.2446C32.9177 27.2446 35.0651 26.3655 35.7551 25.1935L35.7581 25.1993ZM19.8507 26.9779L19.7969 27.564L17.5479 27.3706C17.7338 27.6045 17.8653 27.8756 17.9332 28.1647L17.3926 28.1236C17.3406 27.9378 17.2579 27.7616 17.1477 27.6021C17.0349 27.425 16.8733 27.2828 16.6817 27.1918L16.7176 26.7113L19.8447 26.9779H19.8507ZM18.2109 26.0725C20.3017 26.0725 21.9772 26.723 21.9772 27.5376C21.9772 28.3522 20.2897 29.0027 18.2109 29.0027C16.1322 29.0027 14.4446 28.3522 14.4446 27.5376C14.4446 26.723 16.1202 26.0725 18.2109 26.0725ZM18.2109 25.592C20.7407 25.592 22.7926 26.6498 22.7926 27.9508C22.7926 29.2518 20.7407 30.2949 18.2109 30.2949C15.6812 30.2949 13.6263 29.2401 13.6263 27.9508C13.6263 26.6615 15.6662 25.5802 18.2109 25.5802V25.592ZM22.5985 30.1631C22.7232 30.3678 22.7902 30.6014 22.7926 30.8399C22.7926 32.138 20.7407 33.1841 18.2109 33.1841C15.6812 33.1841 13.6263 32.1263 13.6263 30.8399C13.6282 30.6013 13.6953 30.3676 13.8204 30.1631C14.3849 31.133 16.1351 31.8421 18.2109 31.8421C20.2867 31.8421 22.034 31.133 22.5985 30.1631ZM12.6377 5.9421C12.0941 4.36859 11.6043 2.77749 11.1921 1.16589C12.7332 -0.492598 18.6888 -0.272834 20.4002 1.13952L18.8083 4.83449C19.6625 3.73274 19.9492 3.28149 20.457 2.66908C20.6674 2.80773 20.8671 2.9615 21.0543 3.12912C21.5053 3.53055 21.9085 3.97301 21.9892 4.59421C22.0144 4.81619 21.9892 5.04089 21.9153 5.25216C21.8415 5.46343 21.7208 5.65603 21.5621 5.8161L17.9391 9.97111C17.4728 9.898 17.014 9.78425 16.5682 9.63121C16.7743 9.15359 17.0252 8.62909 17.2313 8.16612L15.9052 9.56968C14.7177 9.27698 13.4617 9.42735 12.3808 9.99163L8.69217 5.63443C8.4935 5.42082 8.38003 5.14408 8.37259 4.855C8.37259 3.80599 9.9705 2.90056 10.8068 2.55773L12.6377 5.9421Z" fill="#1EB980"/>
</svg>
